<svg height="27" width="27" xmlns="http://www.w3.org/2000/svg">  <rect width="27" height="27" x="0" y="0" fill="#ffffff" />
  <rect width="1" height="1" x="1" y="1" fill="#000000" />
  <rect width="1" height="1" x="2" y="1" fill="#000000" />
  <rect width="1" height="1" x="3" y="1" fill="#000000" />
  <rect width="1" height="1" x="4" y="1" fill="#000000" />
  <rect width="1" height="1" x="5" y="1" fill="#000000" />
  <rect width="1" height="1" x="6" y="1" fill="#000000" />
  <rect width="1" height="1" x="7" y="1" fill="#000000" />
  <rect width="1" height="1" x="9" y="1" fill="#000000" />
  <rect width="1" height="1" x="14" y="1" fill="#000000" />
  <rect width="1" height="1" x="15" y="1" fill="#000000" />
  <rect width="1" height="1" x="16" y="1" fill="#000000" />
  <rect width="1" height="1" x="17" y="1" fill="#000000" />
  <rect width="1" height="1" x="19" y="1" fill="#000000" />
  <rect width="1" height="1" x="20" y="1" fill="#000000" />
  <rect width="1" height="1" x="21" y="1" fill="#000000" />
  <rect width="1" height="1" x="22" y="1" fill="#000000" />
  <rect width="1" height="1" x="23" y="1" fill="#000000" />
  <rect width="1" height="1" x="24" y="1" fill="#000000" />
  <rect width="1" height="1" x="25" y="1" fill="#000000" />
  <rect width="1" height="1" x="1" y="2" fill="#000000" />
  <rect width="1" height="1" x="7" y="2" fill="#000000" />
  <rect width="1" height="1" x="9" y="2" fill="#000000" />
  <rect width="1" height="1" x="12" y="2" fill="#000000" />
  <rect width="1" height="1" x="13" y="2" fill="#000000" />
  <rect width="1" height="1" x="15" y="2" fill="#000000" />
  <rect width="1" height="1" x="19" y="2" fill="#000000" />
  <rect width="1" height="1" x="25" y="2" fill="#000000" />
  <rect width="1" height="1" x="1" y="3" fill="#000000" />
  <rect width="1" height="1" x="3" y="3" fill="#000000" />
  <rect width="1" height="1" x="4" y="3" fill="#000000" />
  <rect width="1" height="1" x="5" y="3" fill="#000000" />
  <rect width="1" height="1" x="7" y="3" fill="#000000" />
  <rect width="1" height="1" x="9" y="3" fill="#000000" />
  <rect width="1" height="1" x="10" y="3" fill="#000000" />
  <rect width="1" height="1" x="13" y="3" fill="#000000" />
  <rect width="1" height="1" x="15" y="3" fill="#000000" />
  <rect width="1" height="1" x="19" y="3" fill="#000000" />
  <rect width="1" height="1" x="21" y="3" fill="#000000" />
  <rect width="1" height="1" x="22" y="3" fill="#000000" />
  <rect width="1" height="1" x="23" y="3" fill="#000000" />
  <rect width="1" height="1" x="25" y="3" fill="#000000" />
  <rect width="1" height="1" x="1" y="4" fill="#000000" />
  <rect width="1" height="1" x="3" y="4" fill="#000000" />
  <rect width="1" height="1" x="4" y="4" fill="#000000" />
  <rect width="1" height="1" x="5" y="4" fill="#000000" />
  <rect width="1" height="1" x="7" y="4" fill="#000000" />
  <rect width="1" height="1" x="9" y="4" fill="#000000" />
  <rect width="1" height="1" x="10" y="4" fill="#000000" />
  <rect width="1" height="1" x="11" y="4" fill="#000000" />
  <rect width="1" height="1" x="14" y="4" fill="#000000" />
  <rect width="1" height="1" x="15" y="4" fill="#000000" />
  <rect width="1" height="1" x="17" y="4" fill="#000000" />
  <rect width="1" height="1" x="19" y="4" fill="#000000" />
  <rect width="1" height="1" x="21" y="4" fill="#000000" />
  <rect width="1" height="1" x="22" y="4" fill="#000000" />
  <rect width="1" height="1" x="23" y="4" fill="#000000" />
  <rect width="1" height="1" x="25" y="4" fill="#000000" />
  <rect width="1" height="1" x="1" y="5" fill="#000000" />
  <rect width="1" height="1" x="3" y="5" fill="#000000" />
  <rect width="1" height="1" x="4" y="5" fill="#000000" />
  <rect width="1" height="1" x="5" y="5" fill="#000000" />
  <rect width="1" height="1" x="7" y="5" fill="#000000" />
  <rect width="1" height="1" x="10" y="5" fill="#000000" />
  <rect width="1" height="1" x="11" y="5" fill="#000000" />
  <rect width="1" height="1" x="13" y="5" fill="#000000" />
  <rect width="1" height="1" x="14" y="5" fill="#000000" />
  <rect width="1" height="1" x="15" y="5" fill="#000000" />
  <rect width="1" height="1" x="16" y="5" fill="#000000" />
  <rect width="1" height="1" x="17" y="5" fill="#000000" />
  <rect width="1" height="1" x="19" y="5" fill="#000000" />
  <rect width="1" height="1" x="21" y="5" fill="#000000" />
  <rect width="1" height="1" x="22" y="5" fill="#000000" />
  <rect width="1" height="1" x="23" y="5" fill="#000000" />
  <rect width="1" height="1" x="25" y="5" fill="#000000" />
  <rect width="1" height="1" x="1" y="6" fill="#000000" />
  <rect width="1" height="1" x="7" y="6" fill="#000000" />
  <rect width="1" height="1" x="9" y="6" fill="#000000" />
  <rect width="1" height="1" x="10" y="6" fill="#000000" />
  <rect width="1" height="1" x="11" y="6" fill="#000000" />
  <rect width="1" height="1" x="14" y="6" fill="#000000" />
  <rect width="1" height="1" x="17" y="6" fill="#000000" />
  <rect width="1" height="1" x="19" y="6" fill="#000000" />
  <rect width="1" height="1" x="25" y="6" fill="#000000" />
  <rect width="1" height="1" x="1" y="7" fill="#000000" />
  <rect width="1" height="1" x="2" y="7" fill="#000000" />
  <rect width="1" height="1" x="3" y="7" fill="#000000" />
  <rect width="1" height="1" x="4" y="7" fill="#000000" />
  <rect width="1" height="1" x="5" y="7" fill="#000000" />
  <rect width="1" height="1" x="6" y="7" fill="#000000" />
  <rect width="1" height="1" x="7" y="7" fill="#000000" />
  <rect width="1" height="1" x="9" y="7" fill="#000000" />
  <rect width="1" height="1" x="11" y="7" fill="#000000" />
  <rect width="1" height="1" x="13" y="7" fill="#000000" />
  <rect width="1" height="1" x="15" y="7" fill="#000000" />
  <rect width="1" height="1" x="17" y="7" fill="#000000" />
  <rect width="1" height="1" x="19" y="7" fill="#000000" />
  <rect width="1" height="1" x="20" y="7" fill="#000000" />
  <rect width="1" height="1" x="21" y="7" fill="#000000" />
  <rect width="1" height="1" x="22" y="7" fill="#000000" />
  <rect width="1" height="1" x="23" y="7" fill="#000000" />
  <rect width="1" height="1" x="24" y="7" fill="#000000" />
  <rect width="1" height="1" x="25" y="7" fill="#000000" />
  <rect width="1" height="1" x="11" y="8" fill="#000000" />
  <rect width="1" height="1" x="13" y="8" fill="#000000" />
  <rect width="1" height="1" x="15" y="8" fill="#000000" />
  <rect width="1" height="1" x="16" y="8" fill="#000000" />
  <rect width="1" height="1" x="17" y="8" fill="#000000" />
  <rect width="1" height="1" x="1" y="9" fill="#000000" />
  <rect width="1" height="1" x="2" y="9" fill="#000000" />
  <rect width="1" height="1" x="5" y="9" fill="#000000" />
  <rect width="1" height="1" x="6" y="9" fill="#000000" />
  <rect width="1" height="1" x="7" y="9" fill="#000000" />
  <rect width="1" height="1" x="11" y="9" fill="#000000" />
  <rect width="1" height="1" x="12" y="9" fill="#000000" />
  <rect width="1" height="1" x="13" y="9" fill="#000000" />
  <rect width="1" height="1" x="20" y="9" fill="#000000" />
  <rect width="1" height="1" x="22" y="9" fill="#000000" />
  <rect width="1" height="1" x="23" y="9" fill="#000000" />
  <rect width="1" height="1" x="24" y="9" fill="#000000" />
  <rect width="1" height="1" x="25" y="9" fill="#000000" />
  <rect width="1" height="1" x="1" y="10" fill="#000000" />
  <rect width="1" height="1" x="3" y="10" fill="#000000" />
  <rect width="1" height="1" x="4" y="10" fill="#000000" />
  <rect width="1" height="1" x="5" y="10" fill="#000000" />
  <rect width="1" height="1" x="6" y="10" fill="#000000" />
  <rect width="1" height="1" x="8" y="10" fill="#000000" />
  <rect width="1" height="1" x="12" y="10" fill="#000000" />
  <rect width="1" height="1" x="13" y="10" fill="#000000" />
  <rect width="1" height="1" x="15" y="10" fill="#000000" />
  <rect width="1" height="1" x="16" y="10" fill="#000000" />
  <rect width="1" height="1" x="17" y="10" fill="#000000" />
  <rect width="1" height="1" x="21" y="10" fill="#000000" />
  <rect width="1" height="1" x="22" y="10" fill="#000000" />
  <rect width="1" height="1" x="24" y="10" fill="#000000" />
  <rect width="1" height="1" x="2" y="11" fill="#000000" />
  <rect width="1" height="1" x="7" y="11" fill="#000000" />
  <rect width="1" height="1" x="8" y="11" fill="#000000" />
  <rect width="1" height="1" x="9" y="11" fill="#000000" />
  <rect width="1" height="1" x="10" y="11" fill="#000000" />
  <rect width="1" height="1" x="11" y="11" fill="#000000" />
  <rect width="1" height="1" x="12" y="11" fill="#000000" />
  <rect width="1" height="1" x="13" y="11" fill="#000000" />
  <rect width="1" height="1" x="15" y="11" fill="#000000" />
  <rect width="1" height="1" x="16" y="11" fill="#000000" />
  <rect width="1" height="1" x="17" y="11" fill="#000000" />
  <rect width="1" height="1" x="22" y="11" fill="#000000" />
  <rect width="1" height="1" x="23" y="11" fill="#000000" />
  <rect width="1" height="1" x="2" y="12" fill="#000000" />
  <rect width="1" height="1" x="5" y="12" fill="#000000" />
  <rect width="1" height="1" x="6" y="12" fill="#000000" />
  <rect width="1" height="1" x="9" y="12" fill="#000000" />
  <rect width="1" height="1" x="10" y="12" fill="#000000" />
  <rect width="1" height="1" x="12" y="12" fill="#000000" />
  <rect width="1" height="1" x="13" y="12" fill="#000000" />
  <rect width="1" height="1" x="15" y="12" fill="#000000" />
  <rect width="1" height="1" x="20" y="12" fill="#000000" />
  <rect width="1" height="1" x="23" y="12" fill="#000000" />
  <rect width="1" height="1" x="24" y="12" fill="#000000" />
  <rect width="1" height="1" x="1" y="13" fill="#000000" />
  <rect width="1" height="1" x="3" y="13" fill="#000000" />
  <rect width="1" height="1" x="5" y="13" fill="#000000" />
  <rect width="1" height="1" x="7" y="13" fill="#000000" />
  <rect width="1" height="1" x="8" y="13" fill="#000000" />
  <rect width="1" height="1" x="9" y="13" fill="#000000" />
  <rect width="1" height="1" x="12" y="13" fill="#000000" />
  <rect width="1" height="1" x="13" y="13" fill="#000000" />
  <rect width="1" height="1" x="17" y="13" fill="#000000" />
  <rect width="1" height="1" x="18" y="13" fill="#000000" />
  <rect width="1" height="1" x="19" y="13" fill="#000000" />
  <rect width="1" height="1" x="22" y="13" fill="#000000" />
  <rect width="1" height="1" x="23" y="13" fill="#000000" />
  <rect width="1" height="1" x="24" y="13" fill="#000000" />
  <rect width="1" height="1" x="25" y="13" fill="#000000" />
  <rect width="1" height="1" x="1" y="14" fill="#000000" />
  <rect width="1" height="1" x="2" y="14" fill="#000000" />
  <rect width="1" height="1" x="3" y="14" fill="#000000" />
  <rect width="1" height="1" x="4" y="14" fill="#000000" />
  <rect width="1" height="1" x="6" y="14" fill="#000000" />
  <rect width="1" height="1" x="9" y="14" fill="#000000" />
  <rect width="1" height="1" x="11" y="14" fill="#000000" />
  <rect width="1" height="1" x="12" y="14" fill="#000000" />
  <rect width="1" height="1" x="14" y="14" fill="#000000" />
  <rect width="1" height="1" x="15" y="14" fill="#000000" />
  <rect width="1" height="1" x="16" y="14" fill="#000000" />
  <rect width="1" height="1" x="17" y="14" fill="#000000" />
  <rect width="1" height="1" x="21" y="14" fill="#000000" />
  <rect width="1" height="1" x="24" y="14" fill="#000000" />
  <rect width="1" height="1" x="3" y="15" fill="#000000" />
  <rect width="1" height="1" x="5" y="15" fill="#000000" />
  <rect width="1" height="1" x="7" y="15" fill="#000000" />
  <rect width="1" height="1" x="11" y="15" fill="#000000" />
  <rect width="1" height="1" x="12" y="15" fill="#000000" />
  <rect width="1" height="1" x="13" y="15" fill="#000000" />
  <rect width="1" height="1" x="15" y="15" fill="#000000" />
  <rect width="1" height="1" x="16" y="15" fill="#000000" />
  <rect width="1" height="1" x="17" y="15" fill="#000000" />
  <rect width="1" height="1" x="18" y="15" fill="#000000" />
  <rect width="1" height="1" x="20" y="15" fill="#000000" />
  <rect width="1" height="1" x="21" y="15" fill="#000000" />
  <rect width="1" height="1" x="22" y="15" fill="#000000" />
  <rect width="1" height="1" x="23" y="15" fill="#000000" />
  <rect width="1" height="1" x="3" y="16" fill="#000000" />
  <rect width="1" height="1" x="4" y="16" fill="#000000" />
  <rect width="1" height="1" x="5" y="16" fill="#000000" />
  <rect width="1" height="1" x="8" y="16" fill="#000000" />
  <rect width="1" height="1" x="9" y="16" fill="#000000" />
  <rect width="1" height="1" x="11" y="16" fill="#000000" />
  <rect width="1" height="1" x="13" y="16" fill="#000000" />
  <rect width="1" height="1" x="15" y="16" fill="#000000" />
  <rect width="1" height="1" x="16" y="16" fill="#000000" />
  <rect width="1" height="1" x="19" y="16" fill="#000000" />
  <rect width="1" height="1" x="20" y="16" fill="#000000" />
  <rect width="1" height="1" x="21" y="16" fill="#000000" />
  <rect width="1" height="1" x="23" y="16" fill="#000000" />
  <rect width="1" height="1" x="24" y="16" fill="#000000" />
  <rect width="1" height="1" x="1" y="17" fill="#000000" />
  <rect width="1" height="1" x="2" y="17" fill="#000000" />
  <rect width="1" height="1" x="6" y="17" fill="#000000" />
  <rect width="1" height="1" x="7" y="17" fill="#000000" />
  <rect width="1" height="1" x="8" y="17" fill="#000000" />
  <rect width="1" height="1" x="12" y="17" fill="#000000" />
  <rect width="1" height="1" x="13" y="17" fill="#000000" />
  <rect width="1" height="1" x="17" y="17" fill="#000000" />
  <rect width="1" height="1" x="18" y="17" fill="#000000" />
  <rect width="1" height="1" x="19" y="17" fill="#000000" />
  <rect width="1" height="1" x="20" y="17" fill="#000000" />
  <rect width="1" height="1" x="21" y="17" fill="#000000" />
  <rect width="1" height="1" x="22" y="17" fill="#000000" />
  <rect width="1" height="1" x="23" y="17" fill="#000000" />
  <rect width="1" height="1" x="9" y="18" fill="#000000" />
  <rect width="1" height="1" x="11" y="18" fill="#000000" />
  <rect width="1" height="1" x="12" y="18" fill="#000000" />
  <rect width="1" height="1" x="15" y="18" fill="#000000" />
  <rect width="1" height="1" x="17" y="18" fill="#000000" />
  <rect width="1" height="1" x="21" y="18" fill="#000000" />
  <rect width="1" height="1" x="1" y="19" fill="#000000" />
  <rect width="1" height="1" x="2" y="19" fill="#000000" />
  <rect width="1" height="1" x="3" y="19" fill="#000000" />
  <rect width="1" height="1" x="4" y="19" fill="#000000" />
  <rect width="1" height="1" x="5" y="19" fill="#000000" />
  <rect width="1" height="1" x="6" y="19" fill="#000000" />
  <rect width="1" height="1" x="7" y="19" fill="#000000" />
  <rect width="1" height="1" x="11" y="19" fill="#000000" />
  <rect width="1" height="1" x="12" y="19" fill="#000000" />
  <rect width="1" height="1" x="13" y="19" fill="#000000" />
  <rect width="1" height="1" x="14" y="19" fill="#000000" />
  <rect width="1" height="1" x="15" y="19" fill="#000000" />
  <rect width="1" height="1" x="17" y="19" fill="#000000" />
  <rect width="1" height="1" x="19" y="19" fill="#000000" />
  <rect width="1" height="1" x="21" y="19" fill="#000000" />
  <rect width="1" height="1" x="1" y="20" fill="#000000" />
  <rect width="1" height="1" x="7" y="20" fill="#000000" />
  <rect width="1" height="1" x="9" y="20" fill="#000000" />
  <rect width="1" height="1" x="10" y="20" fill="#000000" />
  <rect width="1" height="1" x="11" y="20" fill="#000000" />
  <rect width="1" height="1" x="17" y="20" fill="#000000" />
  <rect width="1" height="1" x="21" y="20" fill="#000000" />
  <rect width="1" height="1" x="22" y="20" fill="#000000" />
  <rect width="1" height="1" x="23" y="20" fill="#000000" />
  <rect width="1" height="1" x="24" y="20" fill="#000000" />
  <rect width="1" height="1" x="1" y="21" fill="#000000" />
  <rect width="1" height="1" x="3" y="21" fill="#000000" />
  <rect width="1" height="1" x="4" y="21" fill="#000000" />
  <rect width="1" height="1" x="5" y="21" fill="#000000" />
  <rect width="1" height="1" x="7" y="21" fill="#000000" />
  <rect width="1" height="1" x="9" y="21" fill="#000000" />
  <rect width="1" height="1" x="13" y="21" fill="#000000" />
  <rect width="1" height="1" x="17" y="21" fill="#000000" />
  <rect width="1" height="1" x="18" y="21" fill="#000000" />
  <rect width="1" height="1" x="19" y="21" fill="#000000" />
  <rect width="1" height="1" x="20" y="21" fill="#000000" />
  <rect width="1" height="1" x="21" y="21" fill="#000000" />
  <rect width="1" height="1" x="22" y="21" fill="#000000" />
  <rect width="1" height="1" x="23" y="21" fill="#000000" />
  <rect width="1" height="1" x="24" y="21" fill="#000000" />
  <rect width="1" height="1" x="1" y="22" fill="#000000" />
  <rect width="1" height="1" x="3" y="22" fill="#000000" />
  <rect width="1" height="1" x="4" y="22" fill="#000000" />
  <rect width="1" height="1" x="5" y="22" fill="#000000" />
  <rect width="1" height="1" x="7" y="22" fill="#000000" />
  <rect width="1" height="1" x="10" y="22" fill="#000000" />
  <rect width="1" height="1" x="12" y="22" fill="#000000" />
  <rect width="1" height="1" x="14" y="22" fill="#000000" />
  <rect width="1" height="1" x="16" y="22" fill="#000000" />
  <rect width="1" height="1" x="18" y="22" fill="#000000" />
  <rect width="1" height="1" x="19" y="22" fill="#000000" />
  <rect width="1" height="1" x="20" y="22" fill="#000000" />
  <rect width="1" height="1" x="23" y="22" fill="#000000" />
  <rect width="1" height="1" x="24" y="22" fill="#000000" />
  <rect width="1" height="1" x="25" y="22" fill="#000000" />
  <rect width="1" height="1" x="1" y="23" fill="#000000" />
  <rect width="1" height="1" x="3" y="23" fill="#000000" />
  <rect width="1" height="1" x="4" y="23" fill="#000000" />
  <rect width="1" height="1" x="5" y="23" fill="#000000" />
  <rect width="1" height="1" x="7" y="23" fill="#000000" />
  <rect width="1" height="1" x="10" y="23" fill="#000000" />
  <rect width="1" height="1" x="11" y="23" fill="#000000" />
  <rect width="1" height="1" x="12" y="23" fill="#000000" />
  <rect width="1" height="1" x="15" y="23" fill="#000000" />
  <rect width="1" height="1" x="16" y="23" fill="#000000" />
  <rect width="1" height="1" x="17" y="23" fill="#000000" />
  <rect width="1" height="1" x="18" y="23" fill="#000000" />
  <rect width="1" height="1" x="19" y="23" fill="#000000" />
  <rect width="1" height="1" x="22" y="23" fill="#000000" />
  <rect width="1" height="1" x="24" y="23" fill="#000000" />
  <rect width="1" height="1" x="1" y="24" fill="#000000" />
  <rect width="1" height="1" x="7" y="24" fill="#000000" />
  <rect width="1" height="1" x="9" y="24" fill="#000000" />
  <rect width="1" height="1" x="11" y="24" fill="#000000" />
  <rect width="1" height="1" x="13" y="24" fill="#000000" />
  <rect width="1" height="1" x="16" y="24" fill="#000000" />
  <rect width="1" height="1" x="18" y="24" fill="#000000" />
  <rect width="1" height="1" x="19" y="24" fill="#000000" />
  <rect width="1" height="1" x="20" y="24" fill="#000000" />
  <rect width="1" height="1" x="21" y="24" fill="#000000" />
  <rect width="1" height="1" x="22" y="24" fill="#000000" />
  <rect width="1" height="1" x="23" y="24" fill="#000000" />
  <rect width="1" height="1" x="24" y="24" fill="#000000" />
  <rect width="1" height="1" x="1" y="25" fill="#000000" />
  <rect width="1" height="1" x="2" y="25" fill="#000000" />
  <rect width="1" height="1" x="3" y="25" fill="#000000" />
  <rect width="1" height="1" x="4" y="25" fill="#000000" />
  <rect width="1" height="1" x="5" y="25" fill="#000000" />
  <rect width="1" height="1" x="6" y="25" fill="#000000" />
  <rect width="1" height="1" x="7" y="25" fill="#000000" />
  <rect width="1" height="1" x="9" y="25" fill="#000000" />
  <rect width="1" height="1" x="12" y="25" fill="#000000" />
  <rect width="1" height="1" x="13" y="25" fill="#000000" />
  <rect width="1" height="1" x="15" y="25" fill="#000000" />
  <rect width="1" height="1" x="16" y="25" fill="#000000" />
  <rect width="1" height="1" x="19" y="25" fill="#000000" />
  <rect width="1" height="1" x="23" y="25" fill="#000000" />
  <rect width="1" height="1" x="24" y="25" fill="#000000" />
  <rect width="1" height="1" x="25" y="25" fill="#000000" />
</svg>